<?xml version="1.0" encoding="UTF-8" standalone="no"?>
<!-- Created with Inkscape (http://www.inkscape.org/) -->

<svg
   xmlns:dc="http://purl.org/dc/elements/1.1/"
   xmlns:cc="http://creativecommons.org/ns#"
   xmlns:rdf="http://www.w3.org/1999/02/22-rdf-syntax-ns#"
   xmlns:svg="http://www.w3.org/2000/svg"
   xmlns="http://www.w3.org/2000/svg"
   xmlns:sodipodi="http://sodipodi.sourceforge.net/DTD/sodipodi-0.dtd"
   xmlns:inkscape="http://www.inkscape.org/namespaces/inkscape"
   width="35.756554mm"
   height="33.567608mm"
   viewBox="0 0 35.756554 33.567608"
   version="1.1"
   id="svg8"
   inkscape:version="0.92.3 (3ce5693, 2018-03-11)"
   sodipodi:docname="heart.svg">
  <defs
     id="defs2" />
  <sodipodi:namedview
     id="base"
     pagecolor="#ffffff"
     bordercolor="#666666"
     borderopacity="1.0"
     inkscape:pageopacity="0.0"
     inkscape:pageshadow="2"
     inkscape:zoom="0.71"
     inkscape:cx="-242.85715"
     inkscape:cy="-197.23493"
     inkscape:document-units="mm"
     inkscape:current-layer="layer1"
     showgrid="false"
     inkscape:window-width="1920"
     inkscape:window-height="993"
     inkscape:window-x="0"
     inkscape:window-y="24"
     inkscape:window-maximized="1" />
  <metadata
     id="metadata5">
    <rdf:RDF>
      <cc:Work
         rdf:about="">
        <dc:format>image/svg+xml</dc:format>
        <dc:type
           rdf:resource="http://purl.org/dc/dcmitype/StillImage" />
        <dc:title></dc:title>
      </cc:Work>
    </rdf:RDF>
  </metadata>
  <g
     inkscape:label="Calque 1"
     inkscape:groupmode="layer"
     id="layer1"
     transform="translate(-40.065479,-92.892854)">
    <ellipse
       style="opacity:1;fill:#ff0066;fill-opacity:1;stroke-width:0.26458332"
       id="path51"
       cx="51.026787"
       cy="104.23214"
       rx="10.961308"
       ry="11.339286" />
    <ellipse
       style="opacity:1;fill:#ff0066;fill-opacity:1;stroke-width:0.26458332"
       id="path51-3"
       cx="64.860725"
       cy="104.45893"
       rx="10.961308"
       ry="11.339286" />
    <path
       style="opacity:1;fill:#ff0066;fill-opacity:1;stroke-width:0.26458332"
       id="path70"
       d="m 50.564359,110.48992 c 0.113932,0.81594 0.383987,1.59347 1.041035,2.11428 0.387493,0.17216 0.812466,0.31162 1.125265,0.60584 0.285141,0.24316 0.589071,0.44336 0.875495,0.6812 0.321197,0.34784 0.558025,0.74593 0.82464,1.132 0.268812,0.34433 0.468612,0.74043 0.657442,1.13312 0.172882,0.43557 0.198922,0.68545 0.482701,1.06126 0.200165,0.37954 0.516781,0.61608 0.817589,0.90872 0.299746,0.32353 0.48786,0.71738 0.721958,1.08401 0.234942,0.45309 0.472522,0.9023 0.655486,1.3802 0.09046,0.36367 0.22261,0.70193 0.356087,1.0503 0.156626,0.39111 0.157314,0.81313 0.300334,1.20717 1.11705,1.37304 -5.096341,4.66791 -4.655942,2.65834 0.05086,-0.38043 0.02986,-0.76462 0.05264,-1.14685 0.06811,-0.32988 0.223903,-0.61487 0.290666,-0.94638 0.05951,-0.43106 0.05681,-0.86773 0.06307,-1.30202 0.0016,-0.49242 -0.02794,-0.98371 0.06985,-1.46856 0.09924,-0.38729 0.378822,-0.68269 0.543391,-1.04261 0.09549,-0.59083 0.415006,-1.07666 0.726799,-1.57526 0.471578,-0.74 0.924637,-1.49087 1.405105,-2.22518 0.328755,-0.48231 0.499168,-1.0405 0.737354,-1.56789 0.261424,-0.41917 0.608248,-0.7806 0.833019,-1.22271 0.127807,-0.55914 0.183856,-1.09783 0.428861,-1.62545 0.440557,-0.68166 0.879866,-1.36618 1.343056,-2.03301 0.225145,-0.34567 0.111779,-0.17191 0.340106,-0.52128 0,0 5.076677,-2.2121 5.076677,-2.2121 v 0 c -0.242821,0.33444 -0.125169,0.16161 -0.352168,0.51904 -0.436137,0.67337 -0.894702,1.33443 -1.358773,1.98967 -0.326904,0.48687 -0.44132,0.93477 -0.453078,1.52188 -0.107696,0.52104 -0.411443,0.96519 -0.785119,1.34081 -0.387131,0.46249 -0.423895,1.08242 -0.756174,1.58061 -0.445455,0.7538 -0.969812,1.46281 -1.408843,2.22152 -0.269512,0.45428 -0.674468,0.90762 -0.755229,1.42712 -0.06855,0.39522 -0.218586,0.79434 -0.550148,1.04197 -0.168982,0.43812 -0.15615,0.86606 -0.139137,1.33394 0.003,0.45399 -0.0016,0.9079 -0.0245,1.36142 -0.02558,0.35286 -0.04773,0.70185 -0.270669,0.99007 -0.166709,0.32942 -0.01574,0.73802 -0.07031,1.09734 -0.109527,2.18284 -4.544814,4.85326 -5.186172,2.50446 -0.155313,-0.39828 -0.199377,-0.79523 -0.301575,-1.20736 -0.129669,-0.35447 -0.301884,-0.67782 -0.351665,-1.05853 -0.15503,-0.44822 -0.386017,-0.85671 -0.603925,-1.27552 -0.206139,-0.33311 -0.372068,-0.6867 -0.653767,-0.9701 -0.315537,-0.30723 -0.64139,-0.58985 -0.857567,-0.98107 -0.279504,-0.36494 -0.425903,-0.72374 -0.541602,-1.16219 -0.170106,-0.37043 -0.372277,-0.72893 -0.612397,-1.05832 -0.227383,-0.33873 -0.438899,-0.68906 -0.73329,-0.97664 -0.313285,-0.2114 -0.582673,-0.46852 -0.889072,-0.68907 -0.375666,-0.21152 -0.77729,-0.37995 -1.121372,-0.64266 -0.688409,-0.67061 -1.033347,-1.52999 -1.231329,-2.46413 0,0 4.895199,-2.5714 4.895199,-2.5714 z"
       inkscape:connector-curvature="0" />
    <path
       style="opacity:1;fill:#ff0066;fill-opacity:1;stroke-width:0.26458332"
       id="path74"
       d="m 65.586842,102.4773 c -0.813742,0.84385 -1.711674,1.60258 -2.506017,2.46489 -0.445376,0.50317 -0.778518,1.08156 -1.152266,1.6361 -0.495654,0.68411 -0.921964,1.41918 -1.306081,2.17111 -0.347747,0.64835 -0.699921,1.27756 -0.968811,1.96331 -0.275246,0.6861 -0.507519,1.38878 -0.740519,2.09014 -0.222686,0.58054 -0.385223,1.18037 -0.480496,1.79436 0.19568,2.48048 -6.697938,3.67241 -4.635281,1.71601 1.663978,-0.92537 3.310377,-1.88309 4.991936,-2.77612 0.189281,-0.10051 0.553411,0.009 0.760841,-0.0362 0.06936,-0.015 0.128067,-0.0612 0.192099,-0.0918 -1.538537,0.85871 -3.077076,1.71742 -4.615614,2.57614 0.129574,-0.0569 0.235392,-0.15211 0.356343,-0.22278 8.871453,-5.18322 4.320442,-2.48469 0.347557,-0.21746 -0.06493,0.037 0.113535,-0.0987 0.178218,-0.13612 1.651809,-0.95684 3.313083,-1.89724 4.969626,-2.84587 -1.516787,0.86881 -6.016958,3.55749 -4.550357,2.60642 1.603925,-1.04013 3.306583,-1.91946 4.962903,-2.87395 0.359577,-0.20721 0.575488,-0.2032 0.91457,0.0302 0.522787,0.88095 0.469865,1.97477 0.5076,2.97047 -0.005,0.7662 0.09355,1.54071 -0.03878,2.29998 -0.567605,2.013 -3.357829,2.3466 -5.054917,3.30086 -0.178919,0.10061 -0.339593,-0.0721 -0.588476,0.10915 -1.505638,1.20381 -0.101502,0.0712 4.487206,-2.5541 0.05062,-0.029 -0.09863,0.0625 -0.145372,0.0974 -0.184698,0.13784 -0.334526,0.28673 -0.476282,0.46724 -0.338167,0.50135 -0.556472,1.05995 -0.900753,1.55784 -0.301707,0.40143 -0.475157,0.84764 -0.558228,1.3386 -0.07325,-0.0553 -0.01146,0.15226 0.02595,0.12922 0.100121,-0.0617 0.27091,-0.36668 0.167696,-0.31035 -1.555345,0.84887 -3.074268,1.76284 -4.611402,2.64426 0.426876,-0.32627 0.692275,-0.78236 0.973434,-1.22997 0.294735,-0.4851 0.649126,-0.91552 1.04118,-1.32091 0.273328,-0.4234 0.675035,-0.73488 1.026417,-1.09199 0.381923,-0.34817 0.663012,-0.7802 0.958739,-1.19922 0.223512,-0.42461 0.531143,-0.79862 0.756896,-1.22244 0.150649,-0.48886 0.547759,-0.81787 0.81189,-1.23876 0.266245,-0.34021 0.397222,-0.73625 0.567637,-1.12369 0.185973,-0.4023 0.524661,-0.69415 0.782233,-1.04479 0.261601,-0.28966 0.540612,-0.54681 0.774642,-0.85993 0.318256,-0.24619 0.498559,-0.53242 0.674499,-0.88752 0.194797,-0.39932 0.420431,-0.7842 0.701164,-1.12912 2.534714,-1.87188 5.217777,-4.36046 5.380628,-1.42519 0.0083,0.4973 -0.009,0.99453 -0.01159,1.49179 -0.0062,0.49565 0.02837,0.98885 -0.09508,1.47219 -1.089007,2.01072 -3.59641,3.14486 -5.84059,3.22501 -0.41457,0.0653 -0.975003,-0.15753 -1.329063,0.0914 -1.768644,0.81536 -0.380942,0.18116 4.453414,-2.53034 0.06213,-0.0348 -0.118832,0.0786 -0.179303,0.1163 -0.239159,0.14896 -0.403037,0.31635 -0.596178,0.5237 -0.437052,0.48395 -0.851109,0.99158 -1.341326,1.42336 -0.336542,0.32314 -0.645991,0.67292 -0.967261,1.011 -1.386086,1.87639 -3.837921,2.66906 -5.753907,3.78274 -0.603107,0.10376 -0.834125,0.0684 -1.223251,-0.42409 -0.246544,-0.37109 -0.170997,-0.85419 -0.424166,-1.2173 -0.257141,-0.35705 -0.399452,-0.77199 -0.545495,-1.18142 -0.164279,-0.29719 -0.207062,-0.64864 -0.445121,-0.89569 -0.350518,-0.41335 -0.69654,-0.83409 -1.048084,-1.24934 -0.273444,-0.55475 -0.714279,-0.97951 -1.057219,-1.48398 -0.417065,-0.46122 -0.777875,-0.96782 -1.16644,-1.45286 -0.477596,-0.48485 -0.802883,-1.08936 -1.275376,-1.57596 -0.528539,-0.47814 -0.95291,-1.06061 -1.348991,-1.6502 -0.372406,-0.35822 -0.58479,-0.77947 -0.698611,-1.27691 -0.08203,-0.63104 -0.242459,-1.24778 -0.346948,-1.87523 -0.09461,-0.32773 -0.202219,-0.81348 -0.567532,-0.94249 -0.359751,-0.25361 -0.497459,-0.62845 -0.60452,-1.0381 0.495562,1.80026 -0.06012,-0.16152 4.89611,-2.39142 0.07523,-0.0338 -0.01376,0.16444 -0.01831,0.24681 -0.02768,0.50091 -0.0285,1.00322 -0.03606,1.50468 -0.0316,1.30432 7.93e-4,2.61774 0.259006,3.89992 0.127748,0.40768 0.291504,1.02608 0.75361,1.16549 0.372927,0.0892 0.765225,0.0626 1.146302,0.0579 0.518567,-0.007 1.037119,-0.008 1.555721,-0.01 0.480538,0.12049 0.931407,0.26786 1.219112,0.69159 0.722802,2.95239 -4.370551,3.25247 -6.564193,3.29592 -0.734695,0.0122 -1.469472,0.0163 -2.20426,0.0161 -0.48347,0.001 -0.966957,0.001 -1.45043,-10e-4 -0.536429,0.0784 -0.704924,-0.0759 -1.16034,-0.25294 -0.182081,-0.0316 -0.296519,-0.11973 -0.449186,0.0108 -0.03138,0.0268 -0.12464,0.10695 -0.08891,0.0863 4.739876,-2.74452 4.24288,-4.50597 4.725615,-2.59917 0.253558,0.33022 0.501862,0.64802 0.797949,0.94326 0.344358,0.33316 0.729273,0.61862 1.115962,0.89948 0.319844,0.2061 0.646406,0.34818 0.926827,0.61299 0.266439,0.3067 0.56967,0.56362 0.844482,0.86179 0.284787,0.2903 0.498136,0.62954 0.778676,0.92215 0.352907,0.30225 0.573413,0.73393 0.916483,1.04229 0.271409,0.32488 0.559646,0.62438 0.836977,0.94689 0.332523,0.38184 0.573201,0.8297 0.940462,1.18167 0.258225,0.27919 0.554773,0.28063 0.911389,0.28918 0.432321,0.007 0.864737,-0.001 1.297101,-0.002 1.946024,-0.006 4.338923,-2.13722 -3.967276,2.4766 -0.149426,0.083 0.285559,-0.19053 0.411043,-0.30659 0.545343,-0.53061 1.105408,-1.04556 1.667021,-1.55946 0.454234,-0.42136 0.899893,-0.85164 1.342347,-1.28528 0.378664,-0.42963 0.860925,-0.73764 1.31675,-1.07638 1.940673,-1.17903 3.788767,-3.02204 6.122341,-3.10653 0.346393,-0.35055 0.81397,-0.48743 1.234755,-0.71855 1.788705,-0.88312 3.813686,-2.13141 -3.956632,2.31582 -0.103743,0.0594 0.208532,-0.12151 0.294611,-0.20444 0.140822,-0.36361 0.440941,-0.50675 0.71142,-0.75381 0.655436,1.31396 3.966755,-3.59998 6.035389,-2.7794 0.481594,0.21163 0.630206,0.75046 0.671335,1.2319 -0.298521,2.25363 -3.32858,3.30738 -5.512459,3.4415 -0.281387,0.0719 -0.64127,-0.0903 -0.914897,0.003 -0.100058,0.0342 -0.164973,0.13448 -0.258305,0.1842 0.08745,0.011 -0.409681,0.1624 -0.313944,0.10709 9.54764,-5.5164 2.62794,-1.27073 -0.604806,0.38089 7.104653,-4.83951 5.480754,-3.63085 4.041061,-2.07917 -1.577784,1.45636 -3.503938,3.07202 -5.683134,3.25031 -1.407689,1.34396 -0.271597,0.24066 4.514874,-2.54126 0.0406,-0.0236 -0.09673,0.0136 -0.134731,0.0412 -0.127386,0.0925 -0.256929,0.28799 -0.373263,0.3993 -0.322088,0.30326 -0.549826,0.68288 -0.870712,0.99052 -0.228447,0.34491 -0.54183,0.64639 -0.751123,1.00204 -0.292884,0.34163 -0.616191,0.66852 -0.985589,0.9267 -0.256778,0.0838 -0.556115,0.7582 -0.812112,0.70747 -1.465199,-1.80493 3.147816,-2.1809 -4.914633,2.14803 -0.52987,0.2845 0.368615,-0.35088 0.437745,-0.39349 1.377929,-1.44079 3.922234,-2.39295 5.187283,-3.11288 0.0513,-0.0292 0.222507,-0.0738 0.17149,-0.0441 -5.146924,2.99465 -6.081916,3.66204 -4.495318,2.54161 1.658262,-1.26588 3.247387,-1.7638 5.333904,-3.20915 0.622187,-0.431 -6.296234,3.65073 -4.401023,2.53282 1.45003,-1.51586 3.923083,-2.53069 5.452549,-3.32036 1.525061,-0.7874 -5.763927,3.68206 -4.472011,2.55213 0.326101,-0.15682 0.43879,-0.37203 0.61029,-0.67075 0.0331,-0.0565 0.05609,-0.12036 0.0993,-0.16961 0.0768,-0.0875 0.198527,-0.12715 0.276259,-0.21386 0.139923,-0.15609 0.260586,-0.34467 0.397079,-0.50636 0.386898,-0.25754 0.69505,-0.61427 1.016625,-0.94594 1.63106,-1.30776 3.878966,-2.26691 5.448604,-3.24062 1.429676,-0.88689 -5.751021,3.48306 -4.380458,2.5073 0.304083,-0.24899 0.498742,-0.51652 0.811607,-0.77114 0.143124,-0.14665 0.228656,-0.31433 0.306618,-0.50034 0,0 5.010195,-2.38729 5.010195,-2.38729 v 0 c -0.04037,0.245 -0.07125,0.48853 -0.213408,0.70032 -0.07177,0.13741 -0.125172,0.28767 -0.262112,0.37895 -0.171667,0.11443 -0.180901,-0.0175 -0.301162,0.16789 -0.03832,0.0591 -0.03759,0.13767 -0.07443,0.19767 -0.03213,0.0523 -0.08546,0.0882 -0.128191,0.13228 -0.774967,0.76094 -11.905962,6.95442 -0.542594,0.41354 0.365019,-0.21011 -0.823042,0.58484 -0.529016,0.33232 -0.398489,0.24616 -0.670179,0.63672 -0.996537,0.968 -0.54146,0.2045 -0.389986,0.57404 -0.831779,0.72893 -0.0686,0.0728 -0.165949,0.12566 -0.207944,0.21648 -0.100449,0.21724 -0.07311,0.50025 -0.341641,0.61069 -3.042509,1.87674 -9.8636,5.82423 -0.43558,0.33151 0.295391,-0.17209 -0.847535,0.36404 -0.586534,0.35266 -0.04307,0.0714 -0.05803,0.17073 -0.129199,0.21416 -1.622155,0.9898 -3.234301,2.00388 -4.925636,2.87018 -1.571797,0.80508 3.045745,-1.78835 4.566449,-2.6862 0.181864,-0.10738 -0.50115,0.30446 -0.384665,0.40726 -2.516767,1.32115 -10.631863,6.1432 -0.610007,0.30302 0.103428,-0.0603 -0.420574,0.26429 -0.302342,0.19381 -0.133295,0.19561 -0.25335,0.2458 -0.454867,0.36447 -1.46042,0.85999 -4.416163,4.76004 -5.262538,2.35058 -0.01024,-0.40065 0.508434,-0.6568 0.728239,-0.96718 0.300167,-0.31245 0.706421,-0.51668 1.008221,-0.8415 0.269253,-0.20986 0.0036,0.0311 0.20927,-0.28807 0.164118,-0.25474 0.485946,-0.39894 0.547362,-0.72514 0.26821,-0.3639 0.663678,-0.60225 0.845034,-1.03628 0.102793,-0.0968 0.312023,-0.22723 0.388376,-0.3452 0.03798,-0.0587 0.01103,-0.16111 0.07077,-0.19739 4.592439,-2.78902 3.054475,-2.49831 5.086051,-2.85315 1.677361,-0.83622 3.39774,-2.04351 -4.311401,2.50381 -0.102452,0.0604 0.249889,-0.0473 0.330385,-0.13484 0.04186,-0.0455 0.05875,-0.10888 0.08812,-0.16332 0.09186,-0.0523 0.201785,-0.0803 0.276802,-0.15472 0.03634,-0.0361 0.169487,-0.30606 0.196368,-0.33672 0.03492,-0.0398 0.08828,-0.0586 0.132419,-0.0879 1.618126,-0.96572 3.236254,-1.93144 4.854382,-2.89715 0.09963,-0.0534 0.395592,-0.21904 0.297706,-0.16248 -1.527304,0.88257 -6.217322,3.31004 -4.583594,2.64481 1.817397,-0.74001 3.37375,-2.21388 5.244809,-2.91584 0.398645,-0.0984 0.836147,0.0341 1.239219,-0.0939 1.638054,-0.43286 6.029309,-4.66534 -4.255188,2.56496 -0.08293,0.0494 0.200636,-0.0204 0.279376,-0.0762 0.03699,-0.0262 0.04608,-0.0781 0.06912,-0.11719 0.112122,-0.22506 0.03073,-0.52187 -0.249253,-0.52249 -2.048526,0.36043 -4.205457,2.00673 3.704005,-2.41083 -0.198358,0.0682 -0.257387,0.22602 -0.431686,0.30531 -0.188812,0.0859 -0.305464,-0.044 -0.368515,0.23742 -1.041918,2.07915 -3.794199,2.46406 -5.764479,3.56496 -0.449779,0.20416 -0.851435,0.55743 -1.361091,0.57391 -0.203907,0.043 -0.39229,0.0894 -0.584938,0.17116 -0.06803,0.0289 -0.265499,0.12939 -0.201652,0.0922 4.122218,-2.40366 6.083395,-3.43694 4.281638,-2.48416 -0.483616,0.26409 -0.938567,0.62327 -1.361673,0.96937 -0.442942,0.44258 -0.887338,0.88384 -1.348946,1.30707 -0.550313,0.51833 -1.152867,0.99182 -1.641872,1.56727 -0.06929,0.057 -0.146818,0.1053 -0.207875,0.17106 -0.06162,0.0664 -0.07875,0.17603 -0.15689,0.22178 -3.813416,2.23263 -3.305876,2.82142 -5.701414,2.787 -0.447609,0.003 -0.898406,0.0138 -1.342871,-0.0477 -0.444336,-0.0871 -0.813814,-0.26108 -1.115441,-0.61033 -0.349909,-0.38218 -0.619036,-0.82007 -0.958959,-1.20909 -0.267168,-0.31097 -0.561869,-0.59486 -0.820489,-0.91276 -0.312155,-0.34436 -0.576151,-0.73273 -0.915921,-1.05328 -0.279892,-0.29493 -0.505989,-0.63069 -0.787511,-0.92493 -0.259951,-0.27684 -0.551678,-0.52186 -0.808993,-0.80138 -0.299873,-0.20554 -0.632126,-0.35764 -0.909733,-0.5964 -0.390816,-0.3139 -0.81177,-0.59197 -1.153599,-0.9626 -0.353652,-0.35592 -0.651436,-0.75567 -0.93445,-1.16894 -0.782746,-2.18619 3.356965,-4.18389 5.30339,-3.26378 0.328803,0.13984 0.672958,0.0714 1.025785,0.0854 0.482028,-0.001 0.964075,5.3e-4 1.446083,0.005 0.723106,0.003 1.446418,0.009 2.169329,-0.0126 0.303636,-0.0122 0.615778,-0.0204 0.918527,-0.05 0.135806,-0.0133 0.271868,-0.0276 0.405932,-0.053 0.100571,-0.0191 0.383413,-0.13431 0.296399,-0.0804 -4.57895,2.83791 -5.77356,1.43839 -4.310364,2.95814 -0.255005,-0.18299 -0.580212,-0.25466 -0.896276,-0.24955 -0.523494,0.004 -1.04698,0.0133 -1.570487,0.008 -0.453901,-0.0166 -0.909696,-0.0448 -1.307219,-0.29081 -0.513699,-0.38632 -0.807132,-0.97527 -0.949317,-1.59613 -0.262194,-1.31558 -0.293161,-2.66615 -0.293121,-4.00407 -0.0085,-0.49805 -0.02003,-0.99615 -0.02732,-1.49421 -0.0013,-0.0885 -0.07561,-0.21828 -7.94e-4,-0.26561 4.856681,-3.07276 4.103063,-4.54832 4.974,-2.72429 0.05298,0.30207 0.110763,0.52013 0.393869,0.68188 0.401577,0.35943 0.64434,0.81989 0.774034,1.34258 0.08708,0.62286 0.249938,1.22965 0.343511,1.84887 0.07201,0.44337 0.285409,0.76384 0.590209,1.09453 0.365172,0.57349 0.783116,1.1181 1.288856,1.57509 0.464551,0.5129 0.827985,1.10319 1.301507,1.60943 0.397293,0.49536 0.77642,1.00488 1.193766,1.48352 0.337896,0.4832 0.747339,0.91147 1.025302,1.4368 0.35183,0.41059 0.695555,0.8282 1.05691,1.2301 0.270695,0.31943 0.373883,0.68703 0.540274,1.06663 0.154797,0.36553 0.237937,0.76511 0.492419,1.08402 0.223435,0.35898 0.309909,0.74055 0.392192,1.14747 0.185861,0.17418 0.605512,-0.0901 0.783486,-0.19681 -8.005122,4.66498 -5.190836,3.4291 -3.664214,1.90966 0.243729,-0.41881 0.629412,-0.7287 0.938437,-1.10024 0.444577,-0.46641 0.978096,-0.85321 1.360948,-1.38667 1.534927,-1.79152 2.934473,-3.12076 5.843535,-3.62957 0.456805,0.0272 0.917432,0.0214 1.372817,-0.0246 0.158194,-0.0247 0.25696,-0.0304 0.407111,-0.0935 0.0563,-0.0237 0.21195,-0.12154 0.159126,-0.0909 -7.663667,4.44937 -5.973424,3.25447 -4.259477,2.52916 0.368933,-0.27947 0.178565,-0.81074 0.218977,-1.22237 0.0087,-0.48972 0.0131,-0.97953 0.0182,-1.46929 -0.0046,-2.35657 -1.111933,-0.0513 4.688898,-3.25452 -0.317228,0.29256 -0.577379,0.59956 -0.768829,0.98756 -0.187198,0.35709 -0.267054,0.79933 -0.604525,1.04498 -0.321125,0.2339 -0.452462,0.61029 -0.790223,0.83632 -0.304179,0.2724 -0.502989,0.65654 -0.825775,0.92471 -0.264851,0.38728 -0.269645,0.78338 -0.56542,1.15412 -0.17144,0.28164 -0.296987,0.57466 -0.537763,0.81015 -0.05494,0.0537 -0.131903,0.0824 -0.183947,0.13898 -0.05457,0.0593 -0.08732,0.13546 -0.130979,0.2032 -0.141724,0.47354 -0.408866,0.89876 -0.725977,1.27362 -0.200176,0.49522 -0.574513,0.93717 -0.906896,1.34686 -0.339511,0.35569 -0.663755,0.71669 -1.054706,1.00493 -0.258017,0.50831 -0.786474,0.79208 -1.059236,1.30842 -0.299003,0.45348 -0.523896,0.96529 -0.901795,1.3499 -0.446003,0.26506 -4.297143,4.06248 -5.490771,2.59599 -0.178694,-0.21954 -0.155794,-0.24361 -0.215728,-0.49972 0.06388,-0.54604 0.147439,-1.10475 0.470834,-1.56582 0.317635,-0.51457 0.681953,-0.97629 0.884484,-1.55912 1.132292,-1.94868 3.463411,-3.07144 5.60543,-3.65084 0.143095,-0.0127 0.248002,-0.009 0.381138,-0.0691 0.05775,-0.026 0.214987,-0.13399 0.160509,-0.10168 -7.693308,4.56228 -5.932503,3.49665 -4.293287,2.56491 0.274822,-0.6894 0.126476,-1.44631 0.153926,-2.17325 -0.01849,-0.78519 7.94e-4,-1.61656 -0.223271,-2.37449 -4.599488,2.50311 15.036681,-8.57454 -1.053492,0.59038 11.748487,-6.82253 -0.171571,0.10503 -0.55641,0.36178 -1.465927,0.97804 3.039599,-1.78411 4.565917,-2.66493 0.124494,-0.0718 -0.490808,0.34788 -0.342932,0.26144 -1.659173,0.93189 -3.301801,1.89387 -4.977519,2.79568 -0.156948,0.0845 -0.513302,0.0376 -0.699069,0.09 -0.0757,0.0213 -0.289679,0.12023 -0.221816,0.0805 1.517145,-0.88896 3.048585,-1.75329 4.572876,-2.62993 -0.134641,0.0393 -0.277842,0.0534 -0.406191,0.10994 -1.711304,0.75446 -5.915387,4.64489 -5.130165,2.61242 0.100372,-0.6462 0.230995,-1.28802 0.460947,-1.90254 0.270301,-0.69367 0.45793,-1.41806 0.724974,-2.11352 0.15418,-0.34667 0.245512,-0.72033 0.405209,-1.06285 0.196191,-0.42078 0.158486,-0.2004 0.386895,-0.59417 0.06266,-0.10802 0.105609,-0.22633 0.158414,-0.33949 0.380238,-0.77517 0.80967,-1.52867 1.280946,-2.25191 0.41062,-0.55131 0.69882,-1.15955 1.138669,-1.6816 0.727617,-0.93407 1.699543,-1.62899 2.489144,-2.50799 0,0 5.095867,-2.11078 5.095867,-2.11078 z"
       inkscape:connector-curvature="0" />
  </g>
</svg>
